# xmcd
#
# Track frame offsets:
#	150
#	14122
#	28035
#
# Disc length: 555 seconds
#
# Revision: 4
# Processed by: cddbd v1.5PL3 Copyright (c) Steve Scherf et al.
# Submitted via: EasyCDDAExtractor 6.5.7.1
#
DISCID=20022903
DTITLE=BNG - Jump Out
DYEAR=2003
DGENRE=Bluegrass
TTITLE0=Jump Out (Radio Edit)
TTITLE1=Jump Out (Karaoke Mix)
TTITLE2=Jump Out (Instrumental)
EXTD=
EXTT0=
EXTT1=
EXTT2=
PLAYORDER=
